<svg width="50" height="56" viewBox="0 0 50 56" fill="none" xmlns="http://www.w3.org/2000/svg">
<path d="M43.2885 6.66928L49.3535 20.1439V55.6281H37.2191V20.1439L43.2885 6.66928Z" fill="#D9D9D9"/>
<path d="M41.0339 0.380615H8.46928C7.87357 0.380615 7.30226 0.617262 6.88102 1.0385C6.45979 1.45973 6.22314 2.03104 6.22314 2.62676V6.66937H43.2801V2.62676C43.2801 2.03104 43.0434 1.45973 42.6222 1.0385C42.201 0.617262 41.6297 0.380615 41.0339 0.380615Z" fill="#F2F2F2"/>
<path d="M0.163208 20.1439V55.626H37.2158V20.1439L43.2808 6.66928H6.22603L0.163208 20.1439Z" fill="#FBFBFB"/>
<path d="M6.90996 32.2472C7.69129 30.1925 9.00893 28.3848 10.7258 27.012C12.4426 25.6392 14.496 24.7516 16.6722 24.4415C18.8484 24.1313 21.068 24.41 23.1 25.2485C25.132 26.087 26.9021 27.4546 28.2264 29.2092L30.9617 28.8187C29.4481 26.3815 27.2578 24.4375 24.6581 23.2238C22.0585 22.0102 19.1618 21.5795 16.3215 21.9841C13.4811 22.3888 10.82 23.6114 8.66269 25.5027C6.50539 27.3941 4.94521 29.8724 4.17249 32.6354L6.90996 32.2472Z" fill="#F6B318"/>
<path d="M27.9206 44.419C26.7852 45.8032 25.3613 46.9228 23.7483 47.6997C22.1353 48.4766 20.3722 48.892 18.5821 48.9169C16.7919 48.9417 15.018 48.5754 13.384 47.8436C11.7501 47.1118 10.2957 46.0321 9.12229 44.68L6.29706 45.0836C7.72486 47.1266 9.64616 48.7754 11.8823 49.8765C14.1184 50.9777 16.5966 51.4954 19.0866 51.3816C21.5765 51.2677 23.9972 50.5261 26.1235 49.2255C28.2498 47.925 30.0126 46.1078 31.2481 43.943L27.9206 44.419Z" fill="#F6B318"/>
<path d="M19.98 43.5069L19.9142 43.1669C19.8595 43.16 19.8043 43.16 19.7497 43.1669C19.4513 43.2107 19.3109 43.3336 19.4075 43.9741C19.4864 44.5378 19.6488 44.6211 19.9822 44.5729C20.1148 44.5528 20.244 44.5144 20.366 44.4588L20.4516 44.7396C20.2946 44.805 20.1304 44.8514 19.9624 44.8778C19.4009 44.9568 19.1201 44.812 19.0083 44.0399C18.8876 43.1976 19.164 42.9541 19.7211 42.8773C19.8668 42.8586 20.0142 42.8586 20.1598 42.8773L20.2388 43.4761L19.98 43.5069Z" fill="#2D2A26"/>
<path d="M21.18 44.4216L21.3994 44.3777L21.1976 42.9629L20.9651 42.9848L20.93 42.7326L21.7701 42.6119L21.8052 42.8642L21.5858 42.9037L21.6626 43.4345L22.4084 43.3292L22.3338 42.7984L22.1145 42.8203L22.0794 42.5681L22.9173 42.4496L22.9546 42.7018L22.7243 42.7457L22.9261 44.1605L23.1586 44.1386L23.1937 44.3908L22.3558 44.5093L22.3207 44.257L22.54 44.2176L22.4567 43.6319L21.7087 43.7394L21.792 44.325L22.0114 44.3031L22.0465 44.5554L21.2064 44.676L21.18 44.4216Z" fill="#2D2A26"/>
<path d="M23.9283 44.022L24.1477 43.9781L23.9459 42.5633L23.7134 42.5852L23.6783 42.333L24.536 42.2101L24.571 42.4624L24.3517 42.5063L24.5535 43.9233L24.786 43.9014L24.8211 44.1536L23.9634 44.2764L23.9283 44.022Z" fill="#2D2A26"/>
<path d="M26.4698 42.5943L26.404 42.2544C26.3494 42.2475 26.2941 42.2475 26.2395 42.2544C25.9412 42.2982 25.8008 42.4211 25.8973 43.0616C25.9762 43.6253 26.1386 43.7087 26.472 43.6604C26.6046 43.6403 26.7337 43.6019 26.8558 43.5463L26.9414 43.8271C26.7844 43.8925 26.6202 43.9389 26.4522 43.9653C25.8907 44.0442 25.6099 43.8995 25.4981 43.1274C25.3774 42.2851 25.6538 42.0416 26.211 41.9648C26.3566 41.9461 26.504 41.9461 26.6496 41.9648L26.7286 42.5637L26.4698 42.5943Z" fill="#2D2A26"/>
<path d="M27.6699 43.4955L27.8893 43.4516L27.6874 42.0368L27.4549 42.0587L27.4198 41.8065L28.2161 41.6924L28.2511 41.9359L28.0801 41.9666L28.1744 42.6246L28.6701 41.892L28.488 41.9096L28.453 41.6661L29.2492 41.552L29.2843 41.8043L29.1264 41.835L28.6087 42.5874L29.3611 43.2454L29.5256 43.2278L29.5607 43.4801L28.7337 43.5964L28.6986 43.3551L28.8807 43.3222L28.2007 42.7102L28.3016 43.4143L28.4727 43.3946L28.5078 43.6381L27.7116 43.7521L27.6699 43.4955Z" fill="#2D2A26"/>
<path d="M31.2239 42.5327L31.1866 42.3726L30.7633 42.434L30.8444 43.0131L31.4038 42.9341L31.384 42.6972L31.6538 42.6577L31.7284 43.1732L30.2566 43.3925L30.2215 43.1403L30.4408 43.0964L30.239 41.6794L30.0065 41.7014L29.9714 41.4491L31.4433 41.2298L31.5135 41.7277L31.2436 41.7672L31.1976 41.5478L30.6382 41.6268L30.715 42.1686L31.1383 42.1072V41.947L31.3819 41.912L31.463 42.491L31.2239 42.5327Z" fill="#2D2A26"/>
<path d="M32.5173 43.0614L32.4822 42.8091L32.7015 42.7653L32.4997 41.3504L32.2672 41.3724L32.2321 41.1201L32.9845 41.0126L33.693 41.9515C33.8159 42.1168 33.9294 42.2889 34.033 42.4669C33.9848 42.2783 33.9409 42.0721 33.9167 41.9186L33.8092 41.1552L33.5899 41.1772L33.5548 40.9293L34.3247 40.8196L34.3598 41.0719L34.1536 41.1092L34.3927 42.7894L33.8772 42.864L33.1665 41.9251C33.0437 41.7598 32.9302 41.5877 32.8265 41.4097H32.8156C32.8638 41.5983 32.9099 41.8045 32.9318 41.958L33.0393 42.7192L33.2586 42.6973L33.2938 42.9451L32.5173 43.0614Z" fill="#2D2A26"/>
<path d="M30.1208 31.6704C30.1937 31.6568 30.2686 31.6586 30.3407 31.6756C30.4128 31.6926 30.4807 31.7244 30.5398 31.7691C30.7789 31.9511 30.9324 32.3613 31.0377 33.1027L33.308 32.5434C33.2621 31.5933 32.8436 30.6996 32.1432 30.0559C31.8392 29.8522 31.4969 29.7124 31.1372 29.6449C30.7775 29.5774 30.4079 29.5836 30.0506 29.6633C29.1885 29.7467 28.3888 30.1497 27.8089 30.793C27.5479 31.1316 27.362 31.5219 27.2637 31.9379C27.1654 32.354 27.1568 32.7862 27.2386 33.2058C27.5193 35.1514 28.8749 35.6779 30.0726 36.1407H30.0857C30.9631 36.4697 31.7396 36.7549 31.8581 37.5709C31.9005 37.7647 31.8821 37.9669 31.8054 38.15C31.7662 38.2214 31.7097 38.2819 31.6411 38.3259C31.5726 38.37 31.4941 38.3962 31.4128 38.4022C30.7876 38.4922 30.463 38.071 30.27 36.9019L27.9229 37.5051C27.9032 37.5102 27.8822 37.5079 27.864 37.4986C27.8458 37.4893 27.8316 37.4737 27.8242 37.4546L25.2973 30.7469L22.165 31.1987L21.6276 40.0605C21.6263 40.0784 21.6194 40.0954 21.6077 40.109C21.596 40.1226 21.5803 40.132 21.5628 40.1359C21.5453 40.1399 21.527 40.1381 21.5106 40.1308C21.4943 40.1235 21.4807 40.1112 21.4719 40.0956L19.6337 36.6057C19.627 36.5873 19.627 36.5671 19.6337 36.5487L20.9827 30.102L18.3132 30.4771L17.6683 34.9628C17.6657 34.9805 17.6575 34.9968 17.6448 35.0095C17.6322 35.0221 17.6158 35.0304 17.5982 35.033H17.5258C17.5079 35.0355 17.4897 35.0322 17.4738 35.0235C17.458 35.0148 17.4455 35.0012 17.438 34.9848L16.0737 32.0411L2.57489 33.9494L2.8732 36.0223L4.58194 35.7788C4.60317 35.7757 4.62477 35.781 4.64204 35.7938C4.6593 35.8065 4.67082 35.8256 4.67407 35.8468L5.81468 43.9627L8.16172 43.6337L7.02111 35.5178C7.01795 35.4961 7.02346 35.474 7.03646 35.4563C7.0428 35.4473 7.05096 35.4398 7.0604 35.4341C7.06985 35.4284 7.08037 35.4248 7.0913 35.4234L8.55655 35.2172C8.56722 35.2157 8.5781 35.2163 8.58853 35.219C8.59897 35.2217 8.60877 35.2265 8.61735 35.233C8.62593 35.2396 8.63311 35.2477 8.63849 35.2571C8.64387 35.2664 8.64733 35.2768 8.64868 35.2875L9.78931 43.4034L14.7159 42.7102H14.7269C14.7392 42.7099 14.7514 42.7125 14.7626 42.7176C14.7738 42.7227 14.7837 42.7303 14.7915 42.7398C14.7993 42.7494 14.8048 42.7605 14.8077 42.7725C14.8106 42.7845 14.8107 42.7969 14.808 42.809L14.3123 45.3819L17.2538 44.9893L17.9447 38.8256C17.9472 38.8076 17.9554 38.7909 17.968 38.7779C17.9806 38.7649 17.9971 38.7562 18.0149 38.7532H18.0719C18.0898 38.7506 18.108 38.754 18.1239 38.7627C18.1397 38.7714 18.1523 38.785 18.1597 38.8014L19.5833 42.039L23.9703 41.4205L24.0054 39.3213C24.0061 39.302 24.0135 39.2837 24.0263 39.2693C24.0391 39.2549 24.0565 39.2453 24.0756 39.2423L25.7733 38.9988C25.7927 38.9959 25.8124 39.0001 25.8289 39.0105C25.8455 39.021 25.8576 39.0371 25.8632 39.0559L26.4906 41.0695L29.0307 40.7098L28.7016 39.7863C28.6972 39.7712 28.6971 39.7552 28.7013 39.7401C28.7056 39.7249 28.7141 39.7113 28.7258 39.7008C28.7403 39.6888 28.7585 39.6823 28.7773 39.6823C28.7961 39.6823 28.8143 39.6888 28.8289 39.7008C29.1962 40.0189 29.6349 40.2434 30.1078 40.3553C30.5806 40.4672 31.0735 40.4632 31.5444 40.3435C31.971 40.32 32.387 40.2016 32.762 39.9968C33.137 39.792 33.4615 39.5061 33.7119 39.1599C33.9622 38.8137 34.1321 38.4159 34.2091 37.9957C34.2861 37.5754 34.2682 37.1432 34.1569 36.7308C33.8849 34.84 32.4021 34.2499 31.2285 33.7739L31.0684 33.7103C30.2722 33.3681 29.7523 33.0896 29.6404 32.3745C29.6114 32.2198 29.6354 32.0598 29.7084 31.9204C29.7532 31.8497 29.8137 31.7904 29.8853 31.747C29.9568 31.7036 30.0374 31.6774 30.1208 31.6704ZM16.0166 37.1717L15.3213 40.418C15.3176 40.4342 15.3091 40.4489 15.297 40.4602C15.2849 40.4716 15.2697 40.479 15.2533 40.4817L11.8973 40.9511H11.8863C11.868 40.9506 11.8504 40.9444 11.8358 40.9335C11.8269 40.9271 11.8194 40.9189 11.8137 40.9095C11.8081 40.9 11.8044 40.8896 11.8029 40.8787L11.5287 38.9177C11.5269 38.9069 11.5274 38.8959 11.53 38.8854C11.5326 38.8748 11.5374 38.8649 11.5441 38.8563C11.5505 38.8474 11.5587 38.8398 11.5681 38.8342C11.5776 38.8285 11.588 38.8249 11.5989 38.8234L13.9547 38.4834L13.6652 36.4653L11.316 36.8032C11.3052 36.805 11.2942 36.8046 11.2837 36.8019C11.2731 36.7993 11.2632 36.7944 11.2546 36.7878C11.2456 36.7814 11.2381 36.7732 11.2325 36.7638C11.2268 36.7543 11.2231 36.7439 11.2217 36.733L10.9738 34.9782C10.972 34.9674 10.9724 34.9564 10.975 34.9459C10.9777 34.9353 10.9825 34.9254 10.9891 34.9167C10.9956 34.9078 11.0038 34.9003 11.0132 34.8947C11.0226 34.889 11.0331 34.8853 11.044 34.8838L14.4154 34.41C14.4319 34.4076 14.4487 34.4103 14.4636 34.4177C14.4786 34.4252 14.4908 34.437 14.4987 34.4517L16.0079 37.1124C16.0171 37.1308 16.0216 37.1518 16.0166 37.1717ZM25.1811 37.0269C25.1747 37.0368 25.1664 37.0452 25.1565 37.0516C25.1467 37.0581 25.1356 37.0623 25.124 37.0642L24.1128 37.2089H24.1019C24.0825 37.2088 24.0639 37.2018 24.0492 37.1892C24.0404 37.1815 24.0334 37.1721 24.0284 37.1615C24.0235 37.1509 24.0209 37.1394 24.0207 37.1278L23.9944 33.6182C23.9947 33.5986 24.0019 33.5797 24.0147 33.5648C24.0275 33.55 24.0452 33.5401 24.0646 33.537L24.1501 33.5261C24.17 33.5231 24.1903 33.5275 24.2073 33.5384C24.2242 33.5493 24.2366 33.566 24.2423 33.5853L25.1964 36.972C25.1974 36.9915 25.192 37.0108 25.1811 37.0269Z" fill="#2D2A26"/>
<path d="M33.2457 29.7645L33.0878 29.7864L33.1755 30.394L33.0286 30.4159L32.9408 29.8083L32.7829 29.8303L32.7654 29.7096L33.2303 29.6416L33.2457 29.7645Z" fill="#2D2A26"/>
<path d="M33.5115 29.602L33.6891 30.1L33.7199 29.5713L33.9392 29.5406L34.0445 30.2689L33.9106 30.2886L33.8251 29.7095L33.779 30.3084L33.665 30.3259L33.4457 29.7644L33.5312 30.3434L33.3974 30.3632L33.2921 29.6349L33.5115 29.602Z" fill="#2D2A26"/>
<path d="M17.9457 26.0617L14.1773 29.7643L16.1997 29.4704L17.1429 31.2844L17.9457 26.0617Z" fill="#F6B318"/>
<path d="M16.2923 27.3689L14.6823 26.5464L15.5092 28.1388L16.2923 27.3689Z" fill="#F6B318"/>
<path d="M17.8544 28.1698L17.6877 29.2665L19.471 29.0077L17.8544 28.1698Z" fill="#F6B318"/>
</svg>
