<svg width="86" height="83" viewBox="0 0 86 83" fill="none" xmlns="http://www.w3.org/2000/svg">
<g filter="url(#filter0_d_1_483)">
<ellipse cx="43.3265" cy="40.5306" rx="33.6735" ry="32.1429" fill="#F6B318"/>
<path d="M58.1487 23.819L63 34.5973V62.9808H53.2938V34.5973L58.1487 23.819Z" fill="#D9D9D9"/>
<path d="M56.3452 18.7887H30.297C29.8205 18.7887 29.3635 18.978 29.0266 19.3149C28.6896 19.6519 28.5003 20.1089 28.5003 20.5854V23.819H58.1419V20.5854C58.1419 20.1089 57.9526 19.6519 57.6157 19.3149C57.2787 18.978 56.8218 18.7887 56.3452 18.7887Z" fill="#F2F2F2"/>
<path d="M23.653 34.5973V62.9791H53.2911V34.5973L58.1425 23.819H28.5026L23.653 34.5973Z" fill="#FBFBFB"/>
<path d="M29.0497 44.2787C29.6747 42.6352 30.7286 41.1892 32.1019 40.0911C33.4752 38.9931 35.1177 38.2831 36.8584 38.035C38.5992 37.7869 40.3746 38.0098 41.9999 38.6805C43.6253 39.3512 45.0413 40.4452 46.1005 41.8486L48.2885 41.5363C47.0778 39.5868 45.3258 38.0318 43.2463 37.061C41.1669 36.0902 38.8498 35.7457 36.5779 36.0694C34.3059 36.3931 32.1773 37.371 30.4517 38.8839C28.7261 40.3968 27.4781 42.3792 26.86 44.5893L29.0497 44.2787Z" fill="#F6B318"/>
<path d="M45.8558 54.015C44.9476 55.1223 43.8086 56.0179 42.5184 56.6393C41.2282 57.2607 39.8179 57.593 38.386 57.6129C36.9541 57.6327 35.5351 57.3398 34.2282 56.7544C32.9212 56.169 31.7578 55.3054 30.8192 54.2238L28.5593 54.5467C29.7014 56.1809 31.2383 57.4997 33.0269 58.3805C34.8155 59.2613 36.7979 59.6754 38.7896 59.5844C40.7812 59.4933 42.7175 58.9001 44.4183 57.8598C46.1192 56.8194 47.5293 55.3659 48.5175 53.6343L45.8558 54.015Z" fill="#F6B318"/>
<path d="M39.5043 53.2853L39.4517 53.0133C39.408 53.0078 39.3638 53.0078 39.3201 53.0133C39.0815 53.0484 38.9692 53.1466 39.0464 53.659C39.1095 54.1099 39.2394 54.1766 39.5061 54.138C39.6121 54.1219 39.7155 54.0912 39.8131 54.0467L39.8816 54.2713C39.756 54.3237 39.6246 54.3608 39.4903 54.3819C39.0411 54.445 38.8165 54.3292 38.727 53.7116C38.6305 53.0379 38.8516 52.8431 39.2973 52.7817C39.4138 52.7667 39.5317 52.7667 39.6482 52.7817L39.7114 53.2607L39.5043 53.2853Z" fill="#2D2A26"/>
<path d="M40.4642 54.0169L40.6396 53.9818L40.4782 52.8501L40.2922 52.8677L40.2641 52.6659L40.9361 52.5694L40.9642 52.7712L40.7888 52.8028L40.8502 53.2274L41.4467 53.1432L41.3871 52.7185L41.2116 52.7361L41.1835 52.5343L41.8538 52.4396L41.8836 52.6413L41.6994 52.6764L41.8608 53.8081L42.0468 53.7906L42.0749 53.9924L41.4046 54.0871L41.3765 53.8853L41.552 53.8538L41.4853 53.3853L40.887 53.4713L40.9537 53.9397L41.1291 53.9222L41.1572 54.1239L40.4852 54.2205L40.4642 54.0169Z" fill="#2D2A26"/>
<path d="M42.6625 53.6973L42.838 53.6622L42.6765 52.5306L42.4906 52.5481L42.4625 52.3463L43.1485 52.248L43.1766 52.4498L43.0011 52.4849L43.1626 53.6184L43.3486 53.6008L43.3766 53.8026L42.6906 53.9008L42.6625 53.6973Z" fill="#2D2A26"/>
<path d="M44.6954 52.5553L44.6427 52.2834C44.599 52.2779 44.5548 52.2779 44.5112 52.2834C44.2725 52.3185 44.1602 52.4167 44.2374 52.9291C44.3006 53.38 44.4304 53.4466 44.6971 53.408C44.8032 53.392 44.9065 53.3613 45.0042 53.3168L45.0726 53.5414C44.947 53.5937 44.8157 53.6308 44.6813 53.6519C44.2322 53.7151 44.0076 53.5993 43.9181 52.9817C43.8216 52.3079 44.0427 52.1132 44.4883 52.0518C44.6048 52.0368 44.7228 52.0368 44.8392 52.0518L44.9024 52.5308L44.6954 52.5553Z" fill="#2D2A26"/>
<path d="M45.6554 53.2762L45.8308 53.2411L45.6694 52.1094L45.4834 52.127L45.4553 51.9252L46.0922 51.834L46.1203 52.0287L45.9835 52.0533L46.0589 52.5797L46.4554 51.9936L46.3098 52.0077L46.2817 51.8129L46.9186 51.7217L46.9467 51.9235L46.8204 51.948L46.4063 52.5498L47.0081 53.0762L47.1397 53.0622L47.1678 53.2639L46.5063 53.3569L46.4782 53.1639L46.6239 53.1376L46.08 52.6481L46.1607 53.2113L46.2975 53.1955L46.3256 53.3903L45.6887 53.4815L45.6554 53.2762Z" fill="#2D2A26"/>
<path d="M48.4982 52.5061L48.4684 52.378L48.1297 52.4271L48.1946 52.8903L48.6421 52.8272L48.6263 52.6377L48.8421 52.6061L48.9017 53.0184L47.7245 53.1939L47.6963 52.9921L47.8718 52.957L47.7104 51.8236L47.5244 51.8411L47.4964 51.6393L48.6736 51.4639L48.7298 51.8622L48.514 51.8937L48.4771 51.7183L48.0297 51.7814L48.0911 52.2148L48.4298 52.1657V52.0376L48.6245 52.0095L48.6894 52.4727L48.4982 52.5061Z" fill="#2D2A26"/>
<path d="M49.5328 52.9289L49.5048 52.7271L49.6802 52.6921L49.5188 51.5604L49.3328 51.5779L49.3047 51.3761L49.9065 51.2901L50.4733 52.0411C50.5716 52.1734 50.6624 52.311 50.7452 52.4534C50.7066 52.3025 50.6715 52.1376 50.6522 52.0148L50.5662 51.4042L50.3908 51.4218L50.3627 51.2235L50.9786 51.1357L51.0066 51.3375L50.8417 51.3674L51.033 52.7113L50.6206 52.771L50.0522 52.02C49.9539 51.8878 49.8631 51.7501 49.7802 51.6077H49.7714C49.81 51.7586 49.8469 51.9235 49.8644 52.0464L49.9504 52.6552L50.1258 52.6377L50.1539 52.8359L49.5328 52.9289Z" fill="#2D2A26"/>
<path d="M47.6159 43.8173C47.6741 43.8064 47.734 43.8079 47.7917 43.8215C47.8494 43.835 47.9037 43.8605 47.951 43.8963C48.1422 44.0419 48.265 44.37 48.3493 44.963L50.1652 44.5156C50.1286 43.7556 49.7938 43.0407 49.2336 42.5259C48.9904 42.363 48.7166 42.2511 48.4289 42.1971C48.1411 42.1431 47.8454 42.1481 47.5597 42.2119C46.8701 42.2786 46.2305 42.6009 45.7665 43.1155C45.5578 43.3863 45.4091 43.6985 45.3305 44.0313C45.2518 44.3641 45.2449 44.7098 45.3104 45.0455C45.5349 46.6018 46.6193 47.0229 47.5772 47.3931H47.5878C48.2896 47.6563 48.9107 47.8844 49.0055 48.5371C49.0394 48.6921 49.0247 48.8539 48.9634 49.0003C48.932 49.0574 48.8868 49.1058 48.8319 49.141C48.7771 49.1763 48.7143 49.1973 48.6493 49.2021C48.1492 49.274 47.8896 48.9371 47.7352 48.0019L45.8578 48.4844C45.842 48.4885 45.8252 48.4867 45.8106 48.4793C45.7961 48.4718 45.7848 48.4593 45.7788 48.4441L43.7576 43.0786L41.2521 43.4401L40.8222 50.5285C40.8212 50.5428 40.8156 50.5564 40.8062 50.5673C40.7969 50.5781 40.7843 50.5857 40.7703 50.5889C40.7564 50.592 40.7417 50.5906 40.7286 50.5848C40.7155 50.5789 40.7046 50.569 40.6976 50.5566L39.2273 47.7651C39.2219 47.7503 39.2219 47.7342 39.2273 47.7195L40.3063 42.5628L38.171 42.8628L37.6552 46.4509C37.6531 46.465 37.6465 46.4781 37.6364 46.4882C37.6263 46.4983 37.6132 46.5049 37.599 46.507H37.5412C37.5269 46.5091 37.5123 46.5064 37.4996 46.4995C37.487 46.4925 37.4769 46.4816 37.471 46.4685L36.3796 44.1138L25.582 45.6403L25.8207 47.2983L27.1875 47.1036C27.2045 47.1011 27.2217 47.1054 27.2355 47.1156C27.2494 47.1258 27.2586 47.141 27.2612 47.158L28.1735 53.6499L30.0509 53.3867L29.1385 46.8948C29.136 46.8775 29.1404 46.8598 29.1508 46.8457C29.1559 46.8385 29.1624 46.8324 29.17 46.8279C29.1775 46.8233 29.1859 46.8204 29.1947 46.8194L30.3667 46.6544C30.3753 46.6532 30.384 46.6537 30.3923 46.6558C30.4007 46.658 30.4085 46.6618 30.4154 46.6671C30.4222 46.6723 30.428 46.6788 30.4323 46.6863C30.4366 46.6937 30.4394 46.702 30.4404 46.7106L31.3528 53.2025L35.2935 52.648H35.3023C35.3122 52.6478 35.3219 52.6498 35.3309 52.6539C35.3399 52.658 35.3478 52.6641 35.354 52.6717C35.3603 52.6793 35.3647 52.6882 35.367 52.6978C35.3693 52.7074 35.3694 52.7174 35.3672 52.727L34.9707 54.7851L37.3236 54.471L37.8763 49.5407C37.8783 49.5263 37.8848 49.513 37.8949 49.5026C37.905 49.4922 37.9181 49.4852 37.9324 49.4828H37.978C37.9923 49.4807 38.0069 49.4834 38.0196 49.4904C38.0322 49.4973 38.0423 49.5082 38.0482 49.5214L39.1869 52.1111L42.6961 51.6163L42.7241 49.9372C42.7247 49.9218 42.7307 49.9071 42.7409 49.8956C42.7511 49.8841 42.7651 49.8765 42.7803 49.8741L44.1383 49.6793C44.1538 49.6769 44.1696 49.6803 44.1828 49.6887C44.196 49.697 44.2058 49.7099 44.2102 49.7249L44.7121 51.3356L46.7438 51.0479L46.4806 50.3092C46.4771 50.2971 46.477 50.2843 46.4804 50.2722C46.4838 50.2601 46.4906 50.2492 46.4999 50.2408C46.5116 50.2312 46.5261 50.226 46.5412 50.226C46.5562 50.226 46.5708 50.2312 46.5824 50.2408C46.8762 50.4952 47.2272 50.6748 47.6054 50.7643C47.9836 50.8539 48.3779 50.8506 48.7546 50.7548C49.0958 50.7361 49.4286 50.6413 49.7285 50.4776C50.0285 50.3138 50.288 50.0851 50.4883 49.8081C50.6886 49.5312 50.8245 49.213 50.886 48.8769C50.9476 48.5407 50.9333 48.195 50.8442 47.8651C50.6267 46.3526 49.4406 45.8807 48.5019 45.4999L48.3738 45.449C47.7369 45.1753 47.3211 44.9525 47.2316 44.3805C47.2084 44.2568 47.2275 44.1288 47.286 44.0173C47.3218 43.9608 47.3702 43.9133 47.4274 43.8786C47.4847 43.8439 47.5492 43.8229 47.6159 43.8173ZM36.334 48.2177L35.7778 50.8145C35.7748 50.8274 35.7681 50.8392 35.7584 50.8482C35.7487 50.8573 35.7365 50.8633 35.7234 50.8654L33.0389 51.2409H33.0302C33.0156 51.2405 33.0015 51.2356 32.9898 51.2268C32.9827 51.2217 32.9767 51.2151 32.9721 51.2076C32.9676 51.2 32.9647 51.1917 32.9635 51.183L32.7442 49.6144C32.7427 49.6058 32.7431 49.597 32.7452 49.5885C32.7473 49.5801 32.7511 49.5722 32.7565 49.5653C32.7616 49.5581 32.7681 49.5521 32.7757 49.5476C32.7832 49.5431 32.7916 49.5401 32.8003 49.5389L34.6847 49.267L34.4531 47.6528L32.574 47.923C32.5654 47.9244 32.5566 47.9241 32.5481 47.922C32.5397 47.9199 32.5318 47.916 32.5249 47.9107C32.5177 47.9055 32.5117 47.899 32.5072 47.8915C32.5027 47.8839 32.4997 47.8755 32.4985 47.8668L32.3003 46.4632C32.2988 46.4546 32.2992 46.4458 32.3013 46.4373C32.3034 46.4289 32.3072 46.4209 32.3125 46.4141C32.3177 46.4069 32.3242 46.4009 32.3318 46.3964C32.3393 46.3919 32.3477 46.3889 32.3564 46.3877L35.0532 46.0087C35.0664 46.0068 35.0798 46.0089 35.0918 46.0149C35.1037 46.0209 35.1135 46.0303 35.1198 46.0421L36.327 48.1704C36.3344 48.185 36.338 48.2018 36.334 48.2177ZM43.6646 48.102C43.6595 48.1099 43.6528 48.1166 43.645 48.1217C43.6371 48.1269 43.6282 48.1303 43.619 48.1318L42.8101 48.2476H42.8013C42.7859 48.2475 42.7709 48.2419 42.7592 48.2318C42.7522 48.2256 42.7465 48.2181 42.7426 48.2096C42.7387 48.2012 42.7366 48.192 42.7364 48.1826L42.7154 45.3754C42.7156 45.3597 42.7213 45.3445 42.7316 45.3327C42.7419 45.3208 42.756 45.3129 42.7715 45.3104L42.8399 45.3017C42.8559 45.2993 42.8721 45.3028 42.8856 45.3115C42.8992 45.3202 42.9091 45.3336 42.9136 45.349L43.6769 48.0581C43.6776 48.0736 43.6733 48.089 43.6646 48.102Z" fill="#2D2A26"/>
<path d="M50.1155 42.2926L49.9891 42.3101L50.0593 42.7962L49.9418 42.8137L49.8716 42.3277L49.7453 42.3452L49.7312 42.2487L50.1032 42.1943L50.1155 42.2926Z" fill="#2D2A26"/>
<path d="M50.3281 42.1627L50.4702 42.5609L50.4948 42.1381L50.6702 42.1135L50.7544 42.696L50.6474 42.7118L50.5789 42.2486L50.5421 42.7276L50.4509 42.7417L50.2755 42.2925L50.3439 42.7557L50.2368 42.7715L50.1526 42.189L50.3281 42.1627Z" fill="#2D2A26"/>
<path d="M37.877 39.3311L34.8627 42.2928L36.4804 42.0576L37.2348 43.5087L37.877 39.3311Z" fill="#F6B318"/>
<path d="M36.5546 40.3767L35.2668 39.7188L35.9282 40.9926L36.5546 40.3767Z" fill="#F6B318"/>
<path d="M37.8041 41.0173L37.6707 41.8946L39.0972 41.6876L37.8041 41.0173Z" fill="#F6B318"/>
</g>
<defs>
<filter id="filter0_d_1_483" x="-1.72572" y="-1.7562" width="87.7404" height="85.4514" filterUnits="userSpaceOnUse" color-interpolation-filters="sRGB">
<feFlood flood-opacity="0" result="BackgroundImageFix"/>
<feColorMatrix in="SourceAlpha" type="matrix" values="0 0 0 0 0 0 0 0 0 0 0 0 0 0 0 0 0 0 127 0" result="hardAlpha"/>
<feOffset dy="0.969525"/>
<feGaussianBlur stdDeviation="4.36286"/>
<feComposite in2="hardAlpha" operator="out"/>
<feColorMatrix type="matrix" values="0 0 0 0 0 0 0 0 0 0 0 0 0 0 0 0 0 0 0.13 0"/>
<feBlend mode="normal" in2="BackgroundImageFix" result="effect1_dropShadow_1_483"/>
<feBlend mode="normal" in="SourceGraphic" in2="effect1_dropShadow_1_483" result="shape"/>
</filter>
</defs>
</svg>
