<svg width="155" height="52" viewBox="0 0 155 52" fill="none" xmlns="http://www.w3.org/2000/svg">
<rect width="155" height="37" rx="5" fill="#9A3324"/>
<path d="M10.6199 23H8.36985L5.99385 13.676H8.02785L9.48585 20.912H9.52185L10.9619 13.676H12.8699L10.6199 23ZM13.6794 11.93V9.788H15.5334V11.93H13.6794ZM13.6794 23V13.676H15.5334V23H13.6794ZM21.6218 19.742L23.2598 19.832C23.2358 20.732 23.0738 21.428 22.7738 21.92C22.4738 22.412 22.1018 22.754 21.6578 22.946C21.2258 23.126 20.7698 23.216 20.2898 23.216C19.4018 23.216 18.7178 23.012 18.2378 22.604C17.7698 22.184 17.4458 21.614 17.2658 20.894C17.0858 20.162 16.9958 19.334 16.9958 18.41C16.9958 16.862 17.2718 15.65 17.8238 14.774C18.3878 13.898 19.2638 13.46 20.4518 13.46C21.5918 13.46 22.3778 13.916 22.8098 14.828C23.2418 15.728 23.3918 17.018 23.2598 18.698H18.9398C18.9398 19.286 18.9758 19.802 19.0478 20.246C19.1198 20.69 19.2578 21.038 19.4618 21.29C19.6658 21.542 19.9718 21.668 20.3798 21.668C20.7998 21.668 21.0998 21.524 21.2798 21.236C21.4718 20.936 21.5858 20.438 21.6218 19.742ZM18.9398 17.384H21.4238C21.4478 16.604 21.3758 16.01 21.2078 15.602C21.0398 15.182 20.7218 14.972 20.2538 14.972C19.7498 14.972 19.4078 15.194 19.2278 15.638C19.0598 16.082 18.9638 16.664 18.9398 17.384ZM28.2478 23H25.9978L23.7838 13.676H25.8358L27.1318 21.092H27.1678L28.5718 13.676H30.7858L32.2078 21.092H32.2438L33.5218 13.676H35.4118L33.3418 23H31.0918L29.6698 15.782H29.6338L28.2478 23ZM44.934 16.916L43.26 17.006C43.236 16.334 43.134 15.836 42.954 15.512C42.774 15.176 42.456 15.008 42 15.008C41.424 15.008 41.046 15.302 40.866 15.89C40.686 16.466 40.596 17.342 40.596 18.518C40.596 19.502 40.686 20.276 40.866 20.84C41.046 21.392 41.442 21.668 42.054 21.668C42.462 21.668 42.75 21.524 42.918 21.236C43.086 20.936 43.194 20.444 43.242 19.76L44.916 19.85C44.88 20.738 44.718 21.428 44.43 21.92C44.142 22.412 43.776 22.754 43.332 22.946C42.888 23.126 42.42 23.216 41.928 23.216C41.052 23.216 40.374 23.006 39.894 22.586C39.426 22.166 39.102 21.596 38.922 20.876C38.742 20.156 38.652 19.352 38.652 18.464C38.652 16.88 38.928 15.65 39.48 14.774C40.044 13.898 40.92 13.46 42.108 13.46C42.828 13.46 43.392 13.61 43.8 13.91C44.208 14.21 44.496 14.624 44.664 15.152C44.844 15.668 44.934 16.256 44.934 16.916ZM52.3914 21.722L52.4454 22.964C51.8334 23.144 51.3174 23.162 50.8974 23.018C50.4894 22.874 50.2374 22.556 50.1414 22.064C49.9974 22.376 49.7514 22.646 49.4034 22.874C49.0554 23.102 48.6114 23.216 48.0714 23.216C47.4834 23.216 47.0154 23.096 46.6674 22.856C46.3194 22.604 46.0734 22.286 45.9294 21.902C45.7854 21.518 45.7134 21.116 45.7134 20.696C45.7134 19.964 45.8814 19.4 46.2174 19.004C46.5534 18.596 47.0334 18.296 47.6574 18.104C48.2814 17.9 49.0254 17.744 49.8894 17.636V16.808C49.8894 16.136 49.7874 15.662 49.5834 15.386C49.3914 15.11 49.1034 14.972 48.7194 14.972C48.3234 14.972 48.0474 15.074 47.8914 15.278C47.7474 15.47 47.6694 15.722 47.6574 16.034C47.6574 16.334 47.6694 16.646 47.6934 16.97L46.0374 17.096C45.9174 16.424 45.9354 15.812 46.0914 15.26C46.2474 14.708 46.5594 14.27 47.0274 13.946C47.4954 13.622 48.1374 13.46 48.9534 13.46C49.6494 13.46 50.1894 13.592 50.5734 13.856C50.9574 14.108 51.2274 14.45 51.3834 14.882C51.5514 15.302 51.6474 15.776 51.6714 16.304C51.7074 16.82 51.7254 17.348 51.7254 17.888V21.182C51.7254 21.422 51.7674 21.59 51.8514 21.686C51.9354 21.77 52.1154 21.782 52.3914 21.722ZM49.8894 20.39V18.95C49.0014 19.022 48.3894 19.172 48.0534 19.4C47.7294 19.628 47.5674 20.012 47.5674 20.552C47.5674 20.852 47.6454 21.14 47.8014 21.416C47.9694 21.692 48.2454 21.83 48.6294 21.83C48.9894 21.83 49.2894 21.692 49.5294 21.416C49.7694 21.14 49.8894 20.798 49.8894 20.39ZM59.2158 16.808L57.4338 16.916C57.4938 16.232 57.4698 15.746 57.3618 15.458C57.2538 15.17 57.0498 15.026 56.7498 15.026C56.4258 15.026 56.1678 15.164 55.9758 15.44C55.7838 15.716 55.6458 16.094 55.5618 16.574C55.4778 17.054 55.4358 17.594 55.4358 18.194V23H53.5998V13.676H55.2558L55.3098 14.954H55.3458C55.4178 14.774 55.5318 14.57 55.6878 14.342C55.8438 14.102 56.0598 13.898 56.3358 13.73C56.6238 13.55 56.9778 13.46 57.3978 13.46C58.0938 13.46 58.5978 13.736 58.9098 14.288C59.2338 14.828 59.3358 15.668 59.2158 16.808ZM59.7001 15.116V13.676H60.7801V11.876L62.6161 11.282V13.676H64.4881V15.116H62.6161V20.156C62.6161 20.732 62.6881 21.134 62.8321 21.362C62.9761 21.59 63.2581 21.704 63.6781 21.704C63.8461 21.704 64.0201 21.692 64.2001 21.668C64.3801 21.632 64.5421 21.59 64.6861 21.542L64.8661 22.964C64.7461 23.012 64.5361 23.066 64.2361 23.126C63.9361 23.186 63.6241 23.216 63.3001 23.216C62.4721 23.216 61.8421 23.006 61.4101 22.586C60.9901 22.166 60.7801 21.452 60.7801 20.444V15.116H59.7001Z" fill="white"/>
<path d="M98.9358 18.97L98.8458 17.404C99.6978 17.38 100.304 17.194 100.664 16.846C101.024 16.486 101.204 15.862 101.204 14.974C101.204 14.266 101.09 13.792 100.862 13.552C100.634 13.312 100.352 13.192 100.016 13.192C99.5238 13.192 99.1878 13.408 99.0078 13.84C98.8398 14.26 98.7978 14.95 98.8818 15.91L97.1178 16C97.0098 15.22 97.0218 14.494 97.1538 13.822C97.2858 13.138 97.5858 12.592 98.0538 12.184C98.5218 11.764 99.2058 11.554 100.106 11.554C101.03 11.554 101.768 11.836 102.32 12.4C102.872 12.952 103.148 13.762 103.148 14.83C103.148 15.502 103.046 16.054 102.842 16.486C102.638 16.918 102.368 17.254 102.032 17.494C101.708 17.734 101.354 17.914 100.97 18.034C101.81 18.214 102.41 18.604 102.77 19.204C103.142 19.792 103.328 20.512 103.328 21.364C103.328 22.636 103.046 23.596 102.482 24.244C101.93 24.892 101.126 25.216 100.07 25.216C99.2178 25.216 98.5578 25.036 98.0898 24.676C97.6218 24.316 97.2978 23.824 97.1178 23.2C96.9378 22.576 96.8358 21.862 96.8118 21.058L98.6478 20.95C98.6838 21.862 98.8038 22.528 99.0078 22.948C99.2118 23.356 99.5718 23.56 100.088 23.56C100.472 23.56 100.784 23.398 101.024 23.074C101.264 22.738 101.384 22.156 101.384 21.328C101.384 20.632 101.288 20.116 101.096 19.78C100.904 19.432 100.628 19.204 100.268 19.096C99.9078 18.988 99.4638 18.946 98.9358 18.97ZM106.565 18.97L106.475 17.404C107.327 17.38 107.933 17.194 108.293 16.846C108.653 16.486 108.833 15.862 108.833 14.974C108.833 14.266 108.719 13.792 108.491 13.552C108.263 13.312 107.981 13.192 107.645 13.192C107.153 13.192 106.817 13.408 106.637 13.84C106.469 14.26 106.427 14.95 106.511 15.91L104.747 16C104.639 15.22 104.651 14.494 104.783 13.822C104.915 13.138 105.215 12.592 105.683 12.184C106.151 11.764 106.835 11.554 107.735 11.554C108.659 11.554 109.397 11.836 109.949 12.4C110.501 12.952 110.777 13.762 110.777 14.83C110.777 15.502 110.675 16.054 110.471 16.486C110.267 16.918 109.997 17.254 109.661 17.494C109.337 17.734 108.983 17.914 108.599 18.034C109.439 18.214 110.039 18.604 110.399 19.204C110.771 19.792 110.957 20.512 110.957 21.364C110.957 22.636 110.675 23.596 110.111 24.244C109.559 24.892 108.755 25.216 107.699 25.216C106.847 25.216 106.187 25.036 105.719 24.676C105.251 24.316 104.927 23.824 104.747 23.2C104.567 22.576 104.465 21.862 104.441 21.058L106.277 20.95C106.313 21.862 106.433 22.528 106.637 22.948C106.841 23.356 107.201 23.56 107.717 23.56C108.101 23.56 108.413 23.398 108.653 23.074C108.893 22.738 109.013 22.156 109.013 21.328C109.013 20.632 108.917 20.116 108.725 19.78C108.533 19.432 108.257 19.204 107.897 19.096C107.537 18.988 107.093 18.946 106.565 18.97ZM114.194 18.97L114.104 17.404C114.956 17.38 115.562 17.194 115.922 16.846C116.282 16.486 116.462 15.862 116.462 14.974C116.462 14.266 116.348 13.792 116.12 13.552C115.892 13.312 115.61 13.192 115.274 13.192C114.782 13.192 114.446 13.408 114.266 13.84C114.098 14.26 114.056 14.95 114.14 15.91L112.376 16C112.268 15.22 112.28 14.494 112.412 13.822C112.544 13.138 112.844 12.592 113.312 12.184C113.78 11.764 114.464 11.554 115.364 11.554C116.288 11.554 117.026 11.836 117.578 12.4C118.13 12.952 118.406 13.762 118.406 14.83C118.406 15.502 118.304 16.054 118.1 16.486C117.896 16.918 117.626 17.254 117.29 17.494C116.966 17.734 116.612 17.914 116.228 18.034C117.068 18.214 117.668 18.604 118.028 19.204C118.4 19.792 118.586 20.512 118.586 21.364C118.586 22.636 118.304 23.596 117.74 24.244C117.188 24.892 116.384 25.216 115.328 25.216C114.476 25.216 113.816 25.036 113.348 24.676C112.88 24.316 112.556 23.824 112.376 23.2C112.196 22.576 112.094 21.862 112.07 21.058L113.906 20.95C113.942 21.862 114.062 22.528 114.266 22.948C114.47 23.356 114.83 23.56 115.346 23.56C115.73 23.56 116.042 23.398 116.282 23.074C116.522 22.738 116.642 22.156 116.642 21.328C116.642 20.632 116.546 20.116 116.354 19.78C116.162 19.432 115.886 19.204 115.526 19.096C115.166 18.988 114.722 18.946 114.194 18.97ZM125.647 25H122.875V11.788H125.773C127.189 11.788 128.185 12.07 128.761 12.634C129.337 13.198 129.625 13.966 129.625 14.938C129.625 15.598 129.511 16.144 129.283 16.576C129.067 17.008 128.779 17.344 128.419 17.584C128.059 17.812 127.657 17.974 127.213 18.07V18.106C128.221 18.214 128.953 18.538 129.409 19.078C129.865 19.606 130.093 20.332 130.093 21.256C130.093 22.612 129.709 23.578 128.941 24.154C128.173 24.718 127.075 25 125.647 25ZM124.819 23.362H125.503C126.355 23.362 126.997 23.218 127.429 22.93C127.861 22.63 128.077 22.048 128.077 21.184C128.077 20.44 127.867 19.9 127.447 19.564C127.027 19.228 126.457 19.06 125.737 19.06H124.819V23.362ZM124.819 17.44H125.215C125.887 17.44 126.457 17.272 126.925 16.936C127.393 16.6 127.627 16.012 127.627 15.172C127.627 14.5 127.453 14.038 127.105 13.786C126.757 13.534 126.271 13.408 125.647 13.408H124.819V17.44ZM133.753 25H131.629V11.788H133.771C135.151 11.788 136.213 12.022 136.957 12.49C137.713 12.946 138.235 13.642 138.523 14.578C138.811 15.514 138.955 16.708 138.955 18.16C138.955 19.78 138.811 21.094 138.523 22.102C138.235 23.098 137.713 23.83 136.957 24.298C136.213 24.766 135.145 25 133.753 25ZM133.573 23.362H134.095C134.827 23.362 135.397 23.206 135.805 22.894C136.213 22.582 136.495 22.06 136.651 21.328C136.819 20.584 136.903 19.57 136.903 18.286C136.903 17.11 136.819 16.168 136.651 15.46C136.495 14.752 136.213 14.236 135.805 13.912C135.397 13.588 134.815 13.426 134.059 13.426H133.573V23.362Z" fill="white"/>
<path d="M77.5 52L69.2728 36.25L85.7272 36.25L77.5 52Z" fill="#9A3324"/>
<g opacity="0.2" clip-path="url(#clip0_1_528)">
<path d="M24.9951 11.94C24.9633 11.4112 24.5247 10.9991 23.9951 11H19.9951V8C19.9951 5.23856 17.7565 3 14.9951 3C12.2336 3 9.99506 5.23856 9.99506 8V11H5.99506C5.46537 10.9991 5.02681 11.4112 4.99506 11.94L4.11506 27.83C4.02118 29.4842 5.28606 30.9013 6.94025 30.9952C6.99843 30.9985 7.05675 31.0001 7.11506 31H22.8851C24.5419 31.0027 25.8872 29.6617 25.8899 28.0048C25.89 27.9465 25.8884 27.8882 25.8851 27.83L24.9951 11.94ZM11.9951 8C11.9951 6.34312 13.3382 5 14.9951 5C16.6519 5 17.9951 6.34312 17.9951 8V11H11.9951V8Z" fill="white"/>
</g>
<defs>
<clipPath id="clip0_1_528">
<rect width="28" height="28" fill="white" transform="translate(1 3)"/>
</clipPath>
</defs>
</svg>
