<svg width="22" height="28" viewBox="0 0 22 28" fill="none" xmlns="http://www.w3.org/2000/svg">
<path d="M20.9951 8.94C20.9633 8.41125 20.5247 7.99906 19.9951 8H15.9951V5C15.9951 2.23856 13.7565 0 10.9951 0C8.23362 0 5.99506 2.23856 5.99506 5V8H1.99506C1.46537 7.99906 1.02681 8.41125 0.995058 8.94L0.115058 24.83C0.0211832 26.4842 1.28606 27.9013 2.94025 27.9952C2.99843 27.9985 3.05675 28.0001 3.11506 28H18.8851C20.5419 28.0027 21.8872 26.6617 21.8899 25.0048C21.89 24.9465 21.8884 24.8882 21.8851 24.83L20.9951 8.94ZM7.99506 5C7.99506 3.34312 9.33818 2 10.9951 2C12.6519 2 13.9951 3.34312 13.9951 5V8H7.99506V5Z" fill="white"/>
</svg>
